<svg xmlns="http://www.w3.org/2000/svg" viewBox="0 0 512 512" id="world-knowledge">
  <g>
    <path fill="#a8edfd" d="M432,304a175.64,175.64,0,0,1-64.28,136H144.28a176.13,176.13,0,0,1-57.76-88.38C55.09,239.59,139.33,128,256,128A176,176,0,0,1,432,304Z"></path>
    <path fill="#8bd4de" d="M425.48,351.62A176.13,176.13,0,0,1,367.72,440H144.28a176.13,176.13,0,0,1-57.76-88.38A41.77,41.77,0,0,0,107,342.83,104,104,0,0,1,256,362.5c35.48-48.3,103.23-56.22,148.93-19.69A41.88,41.88,0,0,0,425.48,351.62Z"></path>
    <path d="M367.72,448H144.28a8,8,0,0,1-5.08-1.82,185.56,185.56,0,0,1-50.47-65.42,8,8,0,1,1,14.54-6.68A169.37,169.37,0,0,0,147.19,432H364.82A167.5,167.5,0,0,0,424,304c0-92.64-75.36-168-168-168C148,136,67.87,236.82,92.36,342.19a8,8,0,0,1-15.59,3.62C49.9,230.21,138,120,256,120c101.46,0,184,82.54,184,184a183.48,183.48,0,0,1-67.2,142.18A8,8,0,0,1,367.72,448Z"></path>
    <path d="M301.18,448H210.82a8,8,0,0,1-6-2.75C170.25,405.59,152,356.75,152,304c0-73.73,36.28-140.3,99.55-182.65a8,8,0,0,1,8.9,0C323.72,163.7,360,230.27,360,304c0,52.75-18.25,101.59-52.79,141.25A8,8,0,0,1,301.18,448ZM214.5,432h83c72.15-85.82,62.06-221.39-41.5-294.3C152.41,210.64,142.38,346.22,214.5,432Z"></path>
    <path fill="#f6edc8" d="M256,440H24V410a34,34,0,0,1,34-34H80.89a65.81,65.81,0,0,0,41.16-14.44c44.62-35.64,111.19-14.44,127,40.21C250.81,407.76,250.82,408.93,256,440Z"></path>
    <path fill="#f4dcb5" d="M256,440H24V410a33.79,33.79,0,0,1,5.15-18h182.2a77.43,77.43,0,0,1,37.72,9.77C250.81,407.76,250.82,408.93,256,440Z"></path>
    <path d="M256,448H24a8,8,0,0,1-8-8V410a42,42,0,0,1,42-42H80.89a58.09,58.09,0,0,0,36.16-12.69,88.14,88.14,0,0,1,142,54.34l4.84,29A8,8,0,0,1,256,448ZM32,432H246.56l-3.29-19.72a72.13,72.13,0,0,0-116.22-44.47A74.19,74.19,0,0,1,80.89,384H58a26,26,0,0,0-26,26Z"></path>
    <path fill="#f6edc8" d="M488,410v30H256c5.26-31.55,5.23-32.4,6.93-38.23,15.83-54.65,82.39-75.86,127-40.21A65.82,65.82,0,0,0,431.11,376H454A34,34,0,0,1,488,410Z"></path>
    <path fill="#f4dcb5" d="M488,410v30H256c5.26-31.55,5.23-32.4,6.93-38.23A77.49,77.49,0,0,1,300.65,392h182.2A33.79,33.79,0,0,1,488,410Z"></path>
    <path d="M488,448H256a8,8,0,0,1-7.89-9.32l4.84-29a88.14,88.14,0,0,1,142-54.34A58.09,58.09,0,0,0,431.11,368H454a42,42,0,0,1,42,42v30A8,8,0,0,1,488,448ZM265.44,432H480V410a26,26,0,0,0-26-26H431.11A74.19,74.19,0,0,1,385,367.81a72.13,72.13,0,0,0-116.22,44.47Z"></path>
    <path fill="#b1da7a" d="M504,436a20,20,0,0,1-20,20H297a11.5,11.5,0,0,0-11.16,8.72,30.74,30.74,0,0,1-59.64,0A11.51,11.51,0,0,0,215,456H28a20,20,0,0,1,0-40H211.35A53.52,53.52,0,0,1,256,440a53.52,53.52,0,0,1,44.65-24H484A20,20,0,0,1,504,436Z"></path>
    <path fill="#96bf5b" d="M484,432H297a11.5,11.5,0,0,0-11.16,8.72h0a30.74,30.74,0,0,1-59.64,0h0A11.5,11.5,0,0,0,215,432H28a19.94,19.94,0,0,1-16-8,19.88,19.88,0,0,0-4,12H8a20,20,0,0,0,20,20H215a11.5,11.5,0,0,1,11.16,8.72h0a30.74,30.74,0,0,0,59.64,0h0A11.5,11.5,0,0,1,297,456H484a20,20,0,0,0,20-20h0a19.88,19.88,0,0,0-4-12A19.94,19.94,0,0,1,484,432Z"></path>
    <path d="M256 496a38.68 38.68 0 01-37.58-29.34A3.5 3.5 0 00215 464H28a28 28 0 010-56H211.35A61.38 61.38 0 01256 427.18 61.39 61.39 0 01300.65 408H484a28 28 0 010 56H416a8 8 0 010-16h68a12 12 0 000-24H300.65a45.46 45.46 0 00-38 20.43 8 8 0 01-13.32 0 45.44 45.44 0 00-38-20.43H28a12 12 0 000 24H215a19.48 19.48 0 0118.92 14.78 22.74 22.74 0 0044.12 0A19.48 19.48 0 01297 448h87a8 8 0 010 16H297a3.5 3.5 0 00-3.4 2.66A38.68 38.68 0 01256 496zM141.64 171.71a8 8 0 01.43-12.2 183.81 183.81 0 01227.86 0 8 8 0 01.43 12.2C317.18 220.12 194.76 220.06 141.64 171.71zM160.1 166c48.37 34.45 143.12 34.67 191.8 0A167.92 167.92 0 00160.1 166zM432 312H80a8 8 0 010-16H432a8 8 0 010 16z"></path>
    <path fill="#ead590" d="M128,80a69.4,69.4,0,0,0-38.82,49.84L88,136l-1.18-6.16A69.39,69.39,0,0,0,48,80,69.4,69.4,0,0,0,86.82,30.16L88,24l1.18,6.16A69.39,69.39,0,0,0,128,80Z"></path>
    <path d="M88,144a8,8,0,0,1-7.86-6.49L79,131.34A61.59,61.59,0,0,0,44.62,87.25a8,8,0,0,1,0-14.5A61.59,61.59,0,0,0,79,28.66l1.18-6.17a8,8,0,0,1,15.72,0L97,28.66a61.59,61.59,0,0,0,34.34,44.09,8,8,0,0,1,0,14.5A61.59,61.59,0,0,0,97,131.34l-1.18,6.17A8,8,0,0,1,88,144ZM63.76,80A77.88,77.88,0,0,1,88,108.54,77.88,77.88,0,0,1,112.24,80,77.88,77.88,0,0,1,88,51.46,77.88,77.88,0,0,1,63.76,80Z"></path>
    <path fill="#ead590" d="M504,145a69.4,69.4,0,0,0-38.82,49.84L464,201l-1.18-6.16A69.39,69.39,0,0,0,424,145a69.4,69.4,0,0,0,38.82-49.84L464,89l1.18,6.16A69.39,69.39,0,0,0,504,145Z"></path>
    <path d="M464,209a8,8,0,0,1-7.86-6.49L455,196.34a61.59,61.59,0,0,0-34.34-44.09,8,8,0,0,1,0-14.5A61.59,61.59,0,0,0,455,93.66l1.18-6.17a8,8,0,0,1,15.72,0L473,93.66a61.59,61.59,0,0,0,34.34,44.09,8,8,0,0,1,0,14.5A61.59,61.59,0,0,0,473,196.34l-1.18,6.17A8,8,0,0,1,464,209Zm-24.24-64A77.88,77.88,0,0,1,464,173.54,77.88,77.88,0,0,1,488.24,145,77.88,77.88,0,0,1,464,116.46,77.88,77.88,0,0,1,439.76,145Z"></path>
  </g>
</svg>
